<svg width="64" height="64" viewBox="0 0 64 64" xmlns="http://www.w3.org/2000/svg" role="img" aria-label="Secure Chat logo">
  <defs>
    <linearGradient id="grad" x1="0%" y1="0%" x2="100%" y2="100%">
      <stop offset="0%" stop-color="#38bdf8"/>
      <stop offset="100%" stop-color="#6366f1"/>
    </linearGradient>
    <filter id="shadow" x="-20%" y="-20%" width="140%" height="140%">
      <feDropShadow dx="0" dy="4" stdDeviation="4" flood-opacity="0.25" flood-color="#030712"/>
    </filter>
  </defs>
  <rect width="64" height="64" rx="18" fill="url(#grad)" filter="url(#shadow)"/>
  <path d="M17 18h30c3.3 0 6 2.7 6 6v10c0 3.3-2.7 6-6 6H32l-9 9v-9H17c-3.3 0-6-2.7-6-6V24c0-3.3 2.7-6 6-6z" fill="#f8fafc" opacity="0.9"/>
  <rect x="27" y="25" width="22" height="16" rx="3" fill="#0f172a" opacity="0.95"/>
  <path d="M38 28a4 4 0 0 1 4 4v2h1.5c.8 0 1.5.7 1.5 1.5v4c0 .8-.7 1.5-1.5 1.5h-9c-.8 0-1.5-.7-1.5-1.5v-4c0-.8.7-1.5 1.5-1.5H34v-2a4 4 0 0 1 4-4zm0 2a2 2 0 0 0-2 2v2h4v-2a2 2 0 0 0-2-2z" fill="#38bdf8"/>
</svg>
